<?xml version="1.0" standalone="no"?>
<!DOCTYPE svg PUBLIC "-//W3C//DTD SVG 20010904//EN"
 "http://www.w3.org/TR/2001/REC-SVG-20010904/DTD/svg10.dtd">
<svg version="1.0" xmlns="http://www.w3.org/2000/svg"
 width="64.000000pt" height="64.000000pt" viewBox="0 0 64.000000 64.000000"
 preserveAspectRatio="xMidYMid meet">

<g transform="translate(0.000000,64.000000) scale(0.100000,-0.100000)"
fill="#000000" stroke="none">
<path d="M232 571 c-19 -5 -39 -14 -45 -20 -6 -6 -41 -11 -77 -11 -38 0 -71
-5 -78 -12 -17 -17 -17 -359 0 -376 8 -8 50 -12 125 -12 105 0 113 -1 113 -19
0 -17 -8 -20 -47 -23 -36 -2 -49 -7 -51 -20 -3 -17 9 -18 143 -18 134 0 146 1
143 18 -2 13 -15 18 -51 20 -39 3 -47 6 -47 23 0 18 8 19 114 19 91 0 118 3
130 16 13 13 16 44 16 188 0 120 -4 176 -12 184 -7 7 -44 12 -95 12 -58 0 -91
5 -107 15 -27 18 -129 27 -174 16z m-103 -108 c-12 -55 -11 -63 11 -63 17 0
19 -8 22 -71 2 -55 7 -74 20 -83 13 -8 23 -8 35 0 26 16 26 172 1 188 -13 8
-23 8 -38 -2 -18 -11 -20 -10 -20 12 0 55 2 56 140 56 138 0 140 -1 140 -56 0
-22 -2 -23 -20 -12 -15 10 -25 10 -38 2 -25 -16 -25 -172 0 -188 13 -8 23 -8
39 2 19 12 20 11 17 -15 -3 -25 -7 -28 -47 -31 -25 -2 -50 -9 -55 -17 -9 -10
-41 -12 -143 -8 l-133 6 0 158 0 159 39 0 39 0 -9 -37z m411 -123 l0 -160 -67
1 c-50 0 -62 3 -46 9 25 10 45 81 24 88 -6 2 -11 27 -11 63 0 52 2 59 20 59
22 0 24 8 11 63 l-9 37 39 0 39 0 0 -160z"/>
</g>
</svg>
